<svg id="Logos" xmlns="http://www.w3.org/2000/svg" width="1606.71" height="239.07" viewBox="0 0 1606.71 239.07"><defs><style>.cls-1{fill:#e00;}</style></defs><title>Logo-Red_Hat-OpenShift_Container_Platform-A-Standard-RGB</title><path d="M263.39,220.68c-21.22,0-37.86-16.53-37.86-37.54s16.64-37.55,37.86-37.55,38,16.54,38,37.55S284.6,220.68,263.39,220.68Zm0-65c-15.08,0-26.73,11.86-26.73,27.46s11.65,27.45,26.73,27.45,26.83-12,26.83-27.45S278.57,155.68,263.39,155.68Z" transform="translate(-2 -2)"/><path d="M311.75,166.6H322v5.1a24.16,24.16,0,0,1,16.23-5.93c15,0,26.73,12,26.73,27.25s-11.76,27.35-26.94,27.35a26.7,26.7,0,0,1-15.91-5.2v25.9h-10.4Zm10.4,14.56v23.92c3.32,3.85,8.84,6.24,14.76,6.24,10.2,0,17.89-7.8,17.89-18.2s-7.8-18.3-17.89-18.3C330.88,174.82,325.58,177.11,322.15,181.16Z" transform="translate(-2 -2)"/><path d="M400.46,220.48c-15.6,0-27.77-12-27.77-27.46,0-15.29,11.65-27.25,26.52-27.25,14.56,0,25.58,12.06,25.58,27.66v3H383a17.85,17.85,0,0,0,17.88,15.19A20.57,20.57,0,0,0,414.29,207l6.66,6.56A31.62,31.62,0,0,1,400.46,220.48Zm-17.37-31.83H414.5c-1.56-8.11-7.8-14.14-15.5-14.14C391,174.51,384.65,180.23,383.09,188.65Z" transform="translate(-2 -2)"/><path d="M434.67,166.6h10.4v5.31A21.77,21.77,0,0,1,461,165.56c12.16,0,20.69,8.43,20.69,20.7v33.28h-10.4V188c0-8.32-5.09-13.42-13.1-13.42a15,15,0,0,0-13.11,6.86v38.07h-10.4Z" transform="translate(-2 -2)"/><path d="M495,199.78c7.9,7.7,16,11.44,25.07,11.44,10.5,0,17.68-5,17.68-12.17,0-6.45-4.16-9.67-14.77-11.44l-12.17-2c-13.31-2.18-19.87-8.42-19.87-18.92,0-12.69,10.61-20.91,26.84-20.91a48.88,48.88,0,0,1,29.33,9.88l-6,8.32c-7.9-6-15.7-8.94-23.81-8.94-9.47,0-15.81,4.36-15.81,10.81,0,5.93,3.64,8.74,13,10.3L526.19,178c15.39,2.5,22.36,8.84,22.36,20.18,0,13.42-11.65,22.36-29,22.36a43.88,43.88,0,0,1-31.21-13.1Z" transform="translate(-2 -2)"/><path d="M557.39,146.74l10.4-2.29v27.46a21.77,21.77,0,0,1,15.91-6.35c12.17,0,20.7,8.43,20.7,20.7v33.28H594V188c0-8.32-5.1-13.42-13.11-13.42a15,15,0,0,0-13.1,6.86v38.07h-10.4Z" transform="translate(-2 -2)"/><path d="M615.21,151.62a6.39,6.39,0,0,1,6.35-6.44,6.45,6.45,0,1,1,0,12.89A6.39,6.39,0,0,1,615.21,151.62Zm11.55,67.92h-10.4V166.6h10.4Z" transform="translate(-2 -2)"/><path d="M646.93,166.6v-8c0-11,6.35-17.05,18-17.05a27.45,27.45,0,0,1,7.49.93v9.05a20.73,20.73,0,0,0-6.55-.94c-5.72,0-8.53,2.6-8.53,8.22v7.8h15.08v8.74H657.33v44.2h-10.4v-44.2H634.66V166.6Z" transform="translate(-2 -2)"/><path d="M688.22,175.34H677V166.6h11.23V153.08l10.29-2.5v16h15.6v8.74h-15.6V204c0,5.41,2.19,7.39,7.8,7.39a20.37,20.37,0,0,0,7.6-1.25v8.73a34.32,34.32,0,0,1-9.88,1.57c-10.3,0-15.81-4.89-15.81-14Z" transform="translate(-2 -2)"/><path d="M803.14,203.32l5.2,5.4a39.47,39.47,0,0,1-28.6,12,37.55,37.55,0,1,1,0-75.09c11.33,0,21.73,4.37,28.81,12l-5.31,5.62A31.73,31.73,0,0,0,779.74,153c-16.85,0-29.64,13.1-29.64,30.16S763,213.3,780,213.3C789,213.3,797.63,209.56,803.14,203.32Z" transform="translate(-2 -2)"/><path d="M841.2,166.39c14.77,0,26.52,11.86,26.52,27S856,220.58,841.2,220.58s-26.62-11.86-26.62-27.15S826.33,166.39,841.2,166.39Zm18.93,27c0-11.33-8.32-20.17-18.93-20.17s-19,8.84-19,20.17,8.32,20.29,19,20.29S860.13,204.77,860.13,193.43Z" transform="translate(-2 -2)"/><path d="M878.43,167.43h7.7v6.14c4-4.78,9.67-7.18,16.43-7.18,11.86,0,20.07,8.22,20.07,20.18v33H915V188.13c0-9.26-5.62-15-14.56-15a16.21,16.21,0,0,0-14.35,8v38.38h-7.7Z" transform="translate(-2 -2)"/><path d="M939.9,174H928.66v-6.56H939.9v-13.2l7.59-2v15.18h15.7V174h-15.7v31.92c0,5.62,2.29,7.81,8,7.81a18.58,18.58,0,0,0,7.59-1.36v6.76a29.47,29.47,0,0,1-9.15,1.36c-9.05,0-14-4.37-14-12.59Z" transform="translate(-2 -2)"/><path d="M968.6,204.77c0-9.78,8-15.91,20.8-15.91a33.87,33.87,0,0,1,15.29,3.53v-6.86c0-8.32-4.79-12.58-13.84-12.58-5.09,0-10.08,1.35-16.32,4.57l-2.92-5.93c7.49-3.64,13.63-5.2,20-5.2,13.21,0,20.6,6.45,20.6,18.1v35h-7.49v-5.1a24.81,24.81,0,0,1-16.85,6C976.4,220.48,968.6,214.13,968.6,204.77Zm20.59,9.67c6.24,0,11.34-1.87,15.5-6v-9.78c-4.27-2.91-9.05-4.16-15.08-4.16-8.32,0-13.63,4-13.63,10.09C976,210.39,981.39,214.44,989.19,214.44Z" transform="translate(-2 -2)"/><path d="M1023.72,152.25a5.22,5.22,0,0,1,5.2-5.2,5.15,5.15,0,0,1,5.2,5.2,5.22,5.22,0,0,1-5.2,5.2A5.28,5.28,0,0,1,1023.72,152.25Zm9,67.29h-7.69V167.43h7.69Z" transform="translate(-2 -2)"/><path d="M1045.87,167.43h7.7v6.14c4-4.78,9.67-7.18,16.43-7.18,11.85,0,20.07,8.22,20.07,20.18v33h-7.59V188.13c0-9.26-5.62-15-14.56-15a16.2,16.2,0,0,0-14.35,8v38.38h-7.7Z" transform="translate(-2 -2)"/><path d="M1127.41,220.48a26.57,26.57,0,0,1-26.84-27c0-15,11.34-26.83,25.69-26.83,13.83,0,24.65,11.86,24.65,26.83v2.4h-42.74c1.14,10.29,9.25,17.89,19.55,17.89,5.41,0,10.81-1.77,14.35-4.79l4.78,5.1A30.82,30.82,0,0,1,1127.41,220.48Zm-19-30.79h34.84c-1.35-9.26-8.52-16.33-17.16-16.33C1117,173.36,1109.83,180.12,1108.37,189.69Z" transform="translate(-2 -2)"/><path d="M1161.62,167.43h7.7v7.39a16.25,16.25,0,0,1,14.56-8.53,14.19,14.19,0,0,1,4.88.73v7.07a17,17,0,0,0-5.4-.94c-6.45,0-11.34,3.75-14,10.72v35.67h-7.7Z" transform="translate(-2 -2)"/><path d="M1221.42,146.74H1253c14.25,0,23.5,8.32,23.5,21s-9.36,21.12-23.5,21.12h-23.61v30.68h-8Zm8,7.17v28h23c9.88,0,16.12-5.41,16.12-14s-6.24-13.94-16.12-13.94Z" transform="translate(-2 -2)"/><path d="M1295,219.54h-7.7v-72.8L1295,145Z" transform="translate(-2 -2)"/><path d="M1305.24,204.77c0-9.78,8-15.91,20.8-15.91a33.87,33.87,0,0,1,15.29,3.53v-6.86c0-8.32-4.78-12.58-13.83-12.58-5.1,0-10.09,1.35-16.33,4.57l-2.91-5.93c7.49-3.64,13.62-5.2,20-5.2,13.2,0,20.59,6.45,20.59,18.1v35h-7.49v-5.1a24.81,24.81,0,0,1-16.85,6C1313,220.48,1305.24,214.13,1305.24,204.77Zm20.59,9.67c6.24,0,11.34-1.87,15.5-6v-9.78c-4.26-2.91-9-4.16-15.08-4.16-8.32,0-13.62,4-13.62,10.09C1312.63,210.39,1318,214.44,1325.83,214.44Z" transform="translate(-2 -2)"/><path d="M1366.08,174h-11.23v-6.56h11.23v-13.2l7.59-2v15.18h15.71V174h-15.71v31.92c0,5.62,2.29,7.81,8,7.81a18.55,18.55,0,0,0,7.59-1.36v6.76a29.38,29.38,0,0,1-9.15,1.36c-9,0-14-4.37-14-12.59Z" transform="translate(-2 -2)"/><path d="M1406.12,167.43v-9.88c0-10.19,5.72-15.81,16.12-15.81a20.15,20.15,0,0,1,7,.94v6.86a20.15,20.15,0,0,0-6.45-1c-6.13,0-9,2.92-9,9.26v9.67h15.5V174h-15.5v45.55h-7.59V174h-12.27v-6.56Z" transform="translate(-2 -2)"/><path d="M1459.06,166.39c14.77,0,26.52,11.86,26.52,27s-11.75,27.15-26.52,27.15-26.63-11.86-26.63-27.15S1444.18,166.39,1459.06,166.39Zm18.93,27c0-11.33-8.32-20.17-18.93-20.17s-19,8.84-19,20.17,8.32,20.29,19,20.29S1478,204.77,1478,193.43Z" transform="translate(-2 -2)"/><path d="M1496.29,167.43H1504v7.39a16.26,16.26,0,0,1,14.56-8.53,14.21,14.21,0,0,1,4.89.73v7.07a17,17,0,0,0-5.41-.94c-6.44,0-11.33,3.75-14,10.72v35.67h-7.69Z" transform="translate(-2 -2)"/><path d="M1532.27,167.43h7.7v5.72a19.52,19.52,0,0,1,15.29-6.76,18.27,18.27,0,0,1,16.43,9.47,20.39,20.39,0,0,1,17.89-9.47c11.33,0,19.13,8.22,19.13,20.18v33h-7.59V188.13c0-9.26-5.2-15-13.52-15-5.72,0-10.5,2.92-13.83,8.53a24.44,24.44,0,0,1,.52,4.89v33h-7.59V188.13c0-9.26-5.2-15-13.42-15-5.62,0-10.09,2.6-13.31,7.6v38.79h-7.7Z" transform="translate(-2 -2)"/><path class="cls-1" d="M129,85c12.51,0,30.61-2.58,30.61-17.46a14,14,0,0,0-.31-3.42l-7.45-32.36c-1.72-7.12-3.23-10.35-15.73-16.6C126.39,10.19,105.26,2,99,2c-5.82,0-7.55,7.54-14.45,7.54-6.68,0-11.64-5.6-17.89-5.6-6,0-9.91,4.09-12.93,12.5,0,0-8.41,23.72-9.49,27.16A6.43,6.43,0,0,0,44,45.54C44,54.76,80.33,85,129,85m32.55-11.42c1.73,8.19,1.73,9.05,1.73,10.13,0,14-15.74,21.77-36.43,21.77C80,105.47,39.08,78.1,39.08,60a18.45,18.45,0,0,1,1.51-7.33C23.77,53.52,2,56.54,2,75.72,2,107.2,76.59,146,135.65,146c45.28,0,56.7-20.48,56.7-36.65,0-12.72-11-27.16-30.83-35.78" transform="translate(-2 -2)"/><path d="M161.52,73.57c1.73,8.19,1.73,9.05,1.73,10.13,0,14-15.74,21.77-36.43,21.77C80,105.47,39.08,78.1,39.08,60a18.45,18.45,0,0,1,1.51-7.33l3.66-9.06A6.43,6.43,0,0,0,44,45.54C44,54.76,80.33,85,129,85c12.51,0,30.61-2.58,30.61-17.46a14,14,0,0,0-.31-3.42Z" transform="translate(-2 -2)"/><path d="M581.24,94.3c0,11.89,7.15,17.67,20.19,17.67a52.11,52.11,0,0,0,11.89-1.68V96.51a24.84,24.84,0,0,1-7.68,1.16c-5.37,0-7.36-1.68-7.36-6.73V69.8h15.56V55.6H598.28v-18l-17,3.68V55.6H570V69.8h11.25Zm-53,.32c0-3.68,3.69-5.47,9.26-5.47a43.12,43.12,0,0,1,10.1,1.26v7.15A21.51,21.51,0,0,1,537,100.19c-5.46,0-8.73-2.1-8.73-5.57m5.2,17.56c6,0,10.84-1.26,15.36-4.31v3.37h16.82V75.58c0-13.56-9.14-21-24.39-21-8.52,0-16.94,2-26,6.1l6.1,12.52c6.52-2.74,12-4.42,16.83-4.42,7,0,10.62,2.73,10.62,8.31v2.73a49.53,49.53,0,0,0-12.62-1.58c-14.31,0-22.93,6-22.93,16.73,0,9.78,7.78,17.24,20.19,17.24m-92.44-.94h18.09V82.42h30.29v28.82h18.09V37.62H489.43V65.91H459.14V37.62H441.05ZM372.12,83.37c0-8,6.31-14.1,14.62-14.1a17.22,17.22,0,0,1,11.78,4.32V93a16.36,16.36,0,0,1-11.78,4.42c-8.2,0-14.62-6.1-14.62-14.09m26.61,27.87h16.83V33.94l-17,3.68V58.55a28.3,28.3,0,0,0-14.2-3.68c-16.19,0-28.92,12.51-28.92,28.5A28.25,28.25,0,0,0,383.8,112a25.12,25.12,0,0,0,14.93-4.83Zm-77.19-42.7c5.36,0,9.88,3.47,11.67,8.83H310c1.68-5.57,5.89-8.83,11.57-8.83M292.83,83.47c0,16.2,13.25,28.82,30.28,28.82,9.36,0,16.2-2.53,23.25-8.42l-11.26-10c-2.63,2.74-6.52,4.21-11.14,4.21a14.39,14.39,0,0,1-13.68-8.83h39.65V85.05c0-17.67-11.88-30.39-28.08-30.39a28.57,28.57,0,0,0-29,28.81M263.49,53.08c6,0,9.36,3.78,9.36,8.31s-3.37,8.31-9.36,8.31H245.61V53.08Zm-36,58.16h18.09V84.42h13.77l13.89,26.82h20.19l-16.2-29.45a22.27,22.27,0,0,0,13.88-20.72c0-13.25-10.41-23.45-26-23.45H227.52Z" transform="translate(-2 -2)"/></svg>